<?xml version="1.0" encoding="UTF-8"?>
<svg version="1.1" xmlns="http://www.w3.org/2000/svg" width="256" height="256">
<path d="M0 0 C-1.50209598 9.75028375 -4.05959316 19.17776787 -6.625 28.6875 C-7.04987928 30.27528361 -7.47436141 31.86317355 -7.8984375 33.45117188 C-8.92699557 37.30223791 -9.96364638 41.15099118 -11 45 C-20.24 45 -29.48 45 -39 45 C-37.78365591 34.05290323 -37.78365591 34.05290323 -36 31 C-33.56297873 29.25270173 -31.04173106 27.86368261 -28.41015625 26.4296875 C-25.6488699 23.64602444 -25.54245149 22.4562546 -24.80859375 18.70703125 C-23.4027231 12.74902961 -20.85910868 10.59997511 -15.7734375 7.41210938 C-14.40058594 6.62030273 -14.40058594 6.62030273 -13 5.8125 C-12.08476562 5.24208984 -11.16953125 4.67167969 -10.2265625 4.08398438 C-3.53922194 0 -3.53922194 0 0 0 Z M-15 17 C-14 19 -14 19 -14 19 Z M-17 25 C-16 27 -16 27 -16 27 Z M-18 29 C-17 31 -17 31 -17 31 Z " fill="#3395FF" transform="translate(39,101)"/>
<path d="M0 0 C3.58305992 -0.11627503 7.16563417 -0.1872736 10.75 -0.25 C11.76578125 -0.28351563 12.7815625 -0.31703125 13.828125 -0.3515625 C21.32178051 -0.45016323 21.32178051 -0.45016323 24.671875 1.7734375 C26.6729671 5.12820954 26.7243077 8.26371967 26 12 C23.01470588 17.66176471 23.01470588 17.66176471 19 19 C19.2165625 20.10408203 19.2165625 20.10408203 19.4375 21.23046875 C19.623125 22.20628906 19.80875 23.18210938 20 24.1875 C20.185625 25.15042969 20.37125 26.11335938 20.5625 27.10546875 C21 30 21 30 21 35 C17.7 35 14.4 35 11 35 C10.505 28.565 10.505 28.565 10 22 C7.69 22 5.38 22 3 22 C2.86722656 22.68707031 2.73445313 23.37414062 2.59765625 24.08203125 C2.42105469 24.98308594 2.24445312 25.88414062 2.0625 26.8125 C1.88847656 27.70582031 1.71445312 28.59914062 1.53515625 29.51953125 C1 32 1 32 0 35 C-2.97 35 -5.94 35 -9 35 C-7.58861836 27.58172355 -5.86335689 20.30045022 -3.9375 13 C-3.5343457 11.44732422 -3.5343457 11.44732422 -3.12304688 9.86328125 C-1.13061255 2.2612251 -1.13061255 2.2612251 0 0 Z M7 7 C6.34 9.31 5.68 11.62 5 14 C6.62463842 14.05395478 8.24978541 14.09277195 9.875 14.125 C10.77992187 14.14820312 11.68484375 14.17140625 12.6171875 14.1953125 C15.18806994 14.24324836 15.18806994 14.24324836 17 12 C16.67958603 9.39719432 16.67958603 9.39719432 16 7 C13.03 7 10.06 7 7 7 Z " fill="#062553" transform="translate(43,111)"/>
<path d="M0 0 C3.24952748 -0.14546783 6.49821713 -0.2341168 9.75 -0.3125 C10.67039063 -0.35439453 11.59078125 -0.39628906 12.5390625 -0.43945312 C19.34731866 -0.5627911 19.34731866 -0.5627911 22.609375 2.25 C24.69349172 6.37139936 24.74469168 9.4867171 24 14 C22.29038107 19.19285322 19.84455983 23.24740919 15 26 C10.73816252 27.07183937 7.30664006 27.07666001 3 26 C2.01 29.3 1.02 32.6 0 36 C-2.97 36 -5.94 36 -9 36 C-7.50956137 28.00582915 -5.52517371 20.21526757 -3.375 12.375 C-2.88773438 10.58255859 -2.88773438 10.58255859 -2.390625 8.75390625 C-1.59671391 5.83511547 -0.79978098 2.91718675 0 0 Z M7.75 8.5 C5.52898728 11.67287532 5.21684923 14.16899696 5 18 C6.10649557 19.31534788 6.10649557 19.31534788 8.875 19.3125 C12.0026542 19.29461587 12.0026542 19.29461587 13.875 17.4375 C15.3704944 14.19726212 15.20330402 11.52393641 15 8 C11.81304312 6.93768104 10.61425964 6.59049357 7.75 8.5 Z " fill="#062553" transform="translate(172,120)"/>
<path d="M0 0 C0.99 0 1.98 0 3 0 C6 0 9 0 12 0 C7.96127563 17.85649203 7.96127563 17.85649203 5 26 C4.05640625 25.98259766 4.05640625 25.98259766 3.09375 25.96484375 C-1.13639547 25.92024884 -5.19195677 25.95413458 -9.375 26.625 C-14.35080058 27.13973799 -14.35080058 27.13973799 -17 25 C-19.56659531 21.53509633 -19.41154111 18.18400131 -19 14 C-17.22827733 8.33048747 -15.1513709 4.25349741 -10 1 C-6.83598119 -0.58200941 -3.46125163 -0.06168567 0 0 Z M-7.25 8.5 C-9.47101272 11.67287532 -9.78315077 14.16899696 -10 18 C-9.67 18.33 -9.34 18.66 -9 19 C-5.51381119 18.90691463 -5.51381119 18.90691463 -2 18 C0.55094982 15.00540673 0.17248345 11.79463585 0 8 C-3.18695688 6.93768104 -4.38574036 6.59049357 -7.25 8.5 Z " fill="#062553" transform="translate(85,120)"/>
<path d="M0 0 C0.85078125 0.00322266 1.7015625 0.00644531 2.578125 0.00976562 C3.46757812 0.01814453 4.35703125 0.02652344 5.2734375 0.03515625 C6.170625 0.03966797 7.0678125 0.04417969 7.9921875 0.04882812 C10.21100398 0.06063034 12.42968768 0.0770947 14.6484375 0.09765625 C14.10199475 6.42257409 12.97875673 12.11055754 11.0859375 18.16015625 C10.85197266 18.93037109 10.61800781 19.70058594 10.37695312 20.49414062 C9.80782378 22.36413705 9.22915256 24.2312252 8.6484375 26.09765625 C7.70484375 26.08025391 7.70484375 26.08025391 6.7421875 26.0625 C2.5150967 26.0179373 -1.49400372 26.05160863 -5.6640625 26.78515625 C-9.77804628 27.13379894 -11.20070426 26.67563117 -14.3515625 24.09765625 C-16.37738714 20.04600697 -15.99906983 15.10704041 -14.6328125 10.8671875 C-11.63339805 4.42086531 -7.36799108 -0.04911994 0 0 Z M-4.1640625 9.09765625 C-6.81208078 12.72922418 -6.78245423 14.70256059 -6.3515625 19.09765625 C-2.28861514 19.4197101 -2.28861514 19.4197101 1.4609375 18.09765625 C3.34946894 14.91697171 3.34800297 11.76295746 3.6484375 8.09765625 C0.0053626 6.74451415 -0.91898702 6.79004702 -4.1640625 9.09765625 Z " fill="#072553" transform="translate(212.3515625,119.90234375)"/>
<path d="M0 0 C2.97 0 5.94 0 9 0 C9.99 3.96 10.98 7.92 12 12 C12.4846875 11.13375 12.969375 10.2675 13.46875 9.375 C18.87852238 0.38645513 18.87852238 0.38645513 22.3125 -0.796875 C24.5 -0.75 24.5 -0.75 28 0 C27.44231326 3.86849975 26.38755851 6.3070236 24.12109375 9.4765625 C23.23973755 10.72324707 23.23973755 10.72324707 22.34057617 11.99511719 C21.71256104 12.86297852 21.0845459 13.73083984 20.4375 14.625 C19.1509226 16.41397688 17.86446346 18.20303881 16.578125 19.9921875 C15.95744141 20.85166992 15.33675781 21.71115234 14.69726562 22.59667969 C13.26894144 24.61918016 11.91783771 26.65701594 10.609375 28.7578125 C6.15239699 35.69692866 6.15239699 35.69692866 2.51953125 36.65234375 C0.22302242 36.68438806 -1.76636956 36.51187364 -4 36 C-2.87191253 32.6157376 -1.79450577 30.77516514 0.65625 28.09375 C3.82010004 23.73493505 3.10669542 19.98905547 2.37304688 14.85351562 C2.18806641 13.76748047 2.00308594 12.68144531 1.8125 11.5625 C1.64685547 10.44939453 1.48121094 9.33628906 1.31054688 8.18945312 C0.89971571 5.45449136 0.46234256 2.72664377 0 0 Z " fill="#062553" transform="translate(228,120)"/>
<path d="M0 0 C3.125 1.9375 3.125 1.9375 5 5 C6.05522976 10.62789206 5.16584588 15.19664763 2 20 C-1.31286412 23.9396222 -3.91113839 26.02137277 -9 27 C-13.37724629 27.06100692 -16.8257804 26.79259823 -20.5 24.3125 C-22.81410106 20.74492754 -23.34849689 18.04329228 -22.62890625 13.82421875 C-21.01432353 7.85728259 -18.20802851 4.31419996 -13 1 C-8.63886982 -0.45371006 -4.55316989 -0.61627299 0 0 Z M-9 7 C-12.26939806 10.58579143 -13.6675012 13.12335095 -14 18 C-12.89350443 19.31534788 -12.89350443 19.31534788 -10.125 19.3125 C-6.9973458 19.29461587 -6.9973458 19.29461587 -5.125 17.4375 C-3.6295056 14.19726212 -3.79669598 11.52393641 -4 8 C-5.65 7.67 -7.3 7.34 -9 7 Z " fill="#062553" transform="translate(142,120)"/>
<path d="M0 0 C7.26 0 14.52 0 22 0 C20.9215212 6.47087279 20.61331784 6.97561635 16 11 C14.95585938 11.92425781 14.95585938 11.92425781 13.890625 12.8671875 C11.93803828 14.59128003 9.97389594 16.30039233 8 18 C10.97 18.33 13.94 18.66 17 19 C16.67 21.31 16.34 23.62 16 26 C8.41 26.33 0.82 26.66 -7 27 C-5.875 19.125 -5.875 19.125 -3.27734375 16.91015625 C-2.73916016 16.43642578 -2.20097656 15.96269531 -1.64648438 15.47460938 C-1.08251953 15.00861328 -0.51855469 14.54261719 0.0625 14.0625 C0.63033203 13.56943359 1.19816406 13.07636719 1.78320312 12.56835938 C3.17545013 11.36330525 4.58597341 10.17942188 6 9 C3.36 8.67 0.72 8.34 -2 8 C-1.34 5.36 -0.68 2.72 0 0 Z " fill="#062553" transform="translate(100,120)"/>
<path d="M0 0 C-0.71016712 5.95071072 -2.07187289 11.63783318 -3.5625 17.4375 C-3.79646484 18.35982422 -4.03042969 19.28214844 -4.27148438 20.23242188 C-4.84442445 22.48910422 -5.42176463 24.74466867 -6 27 C-11.94 27 -17.88 27 -24 27 C-22.8972973 14.68648649 -22.8972973 14.68648649 -18.6796875 10.9375 C-17.75414062 10.298125 -16.82859375 9.65875 -15.875 9 C-14.89402344 8.319375 -13.91304687 7.63875 -12.90234375 6.9375 C-11.94457031 6.298125 -10.98679687 5.65875 -10 5 C-9.19691406 4.46375 -8.39382813 3.9275 -7.56640625 3.375 C-2.34090909 0 -2.34090909 0 0 0 Z " fill="#062452" transform="translate(24,119)"/>
<path d="M0 0 C6 0 12 0 18 0 C17.34 2.97 16.68 5.94 16 9 C14.906875 8.938125 13.81375 8.87625 12.6875 8.8125 C9.19319525 8.67486176 9.19319525 8.67486176 7.40625 10.0625 C5.35051116 12.89485128 4.70847503 15.8198697 3.8125 19.1875 C3.46832031 20.45980469 3.12414062 21.73210937 2.76953125 23.04296875 C2.51558594 24.01878906 2.26164063 24.99460938 2 26 C-0.97 26 -3.94 26 -7 26 C-2.96127563 8.14350797 -2.96127563 8.14350797 0 0 Z " fill="#062553" transform="translate(153,120)"/>
</svg>
